<svg xmlns="http://www.w3.org/2000/svg" width="600" height="148">
  <path fill="#ffffff" d="M345.532 138.78h2.473V12.993h-2.473zm243.627-12.254c.257-2.345 1.285-3.517 3.084-3.517 1.75 0 2.73 1.172 2.939 3.517zM600 127.827c0-2.73-.658-4.834-1.96-6.264-1.3-1.445-3.212-2.168-5.701-2.168-2.634 0-4.658.787-6.071 2.361-1.43 1.574-2.136 3.839-2.136 6.778 0 2.939.739 5.188 2.232 6.713 1.478 1.526 3.646 2.297 6.505 2.297 1.044 0 2.12-.128 3.212-.353 1.092-.241 2.072-.562 2.94-.964v-4.48c-1.671 1.156-3.454 1.75-5.381 1.75-1.381 0-2.425-.305-3.148-.916-.707-.594-1.156-1.541-1.333-2.842h10.777c.048-.595.064-1.237.064-1.912m-23.497-5.62v-2.667l-4.85.963v16.704h5.09v-11.644c1.093-.9 2.314-1.35 3.647-1.35.931 0 1.718.177 2.345.514v-4.898a5.148 5.148 0 0 0-1.67-.29c-1.784 0-3.31.884-4.562 2.667m-11.612-9.861c-.916 0-1.638.24-2.168.722-.53.466-.803 1.125-.803 1.944 0 .835.273 1.477.803 1.96.53.481 1.252.722 2.168.722.931 0 1.638-.241 2.184-.723.53-.482.803-1.124.803-1.96 0-.818-.273-1.477-.803-1.943-.546-.482-1.253-.722-2.184-.722m-2.538 24.862h5.092V119.54l-5.092.996zm-9.765-17.812c-1.028 0-1.943.193-2.746.579-.803.369-1.526.963-2.168 1.766v-10.166l-5.092.963v24.67h5.092v-12.223c.353-.337.803-.594 1.38-.803a5.128 5.128 0 0 1 1.655-.289c1.654 0 2.474.932 2.474 2.827v10.488h5.09v-11.243c0-2.104-.497-3.726-1.493-4.85-.996-1.14-2.393-1.719-4.192-1.719m-15.274 8.368a9.476 9.476 0 0 0-2.04-.964 35.54 35.54 0 0 0-2.039-.642c-.642-.177-1.156-.385-1.558-.61-.402-.241-.61-.562-.642-.964 0-.401.209-.707.642-.915.418-.21 1.028-.322 1.799-.322.964 0 1.927.161 2.875.466.963.321 1.75.739 2.377 1.27v-4.514c-1.558-.771-3.357-1.173-5.38-1.173-2.345 0-4.144.482-5.43 1.446-1.268.963-1.894 2.296-1.894 4.015.016.996.225 1.83.626 2.49a4.762 4.762 0 0 0 1.558 1.59 9.494 9.494 0 0 0 2.04.963c.722.257 1.413.482 2.04.69.642.21 1.156.45 1.557.723.402.273.61.61.643 1.028 0 .835-.82 1.253-2.442 1.253-1.06 0-2.12-.177-3.196-.498-1.092-.337-2.023-.787-2.826-1.349v4.513c1.91.851 3.967 1.285 6.151 1.285 2.36 0 4.176-.498 5.445-1.462 1.252-.98 1.879-2.344 1.879-4.127-.017-1.06-.225-1.911-.643-2.586a4.761 4.761 0 0 0-1.542-1.606m-13.442-8.03h-5.782l-5.863 6.761v-14.92l-4.978.931v24.702h4.978v-5.252l2.554-2.682 3.983 7.934h5.782l-6.6-11.243zm-25.826 2.473v-2.666l-4.85.963v16.704h5.075v-11.644c1.108-.9 2.312-1.35 3.661-1.35.932 0 1.719.177 2.33.514v-4.898a5.005 5.005 0 0 0-1.671-.29c-1.783 0-3.293.884-4.545 2.667m-13.893 9.893c-.546.836-1.35 1.253-2.41 1.253-1.043 0-1.846-.417-2.408-1.253-.562-.835-.835-2.04-.835-3.63 0-1.59.273-2.794.835-3.63.562-.834 1.365-1.252 2.409-1.252 1.06 0 1.863.418 2.41 1.253.561.835.85 2.04.85 3.63 0 1.59-.289 2.794-.85 3.63m-2.346-12.705c-2.762 0-4.882.787-6.36 2.361-1.494 1.574-2.232 3.823-2.232 6.714 0 2.97.706 5.22 2.152 6.761 1.413 1.526 3.517 2.313 6.312 2.313 2.778 0 4.898-.787 6.376-2.36 1.477-1.575 2.232-3.807 2.232-6.714 0-2.972-.722-5.22-2.152-6.762-1.43-1.542-3.533-2.313-6.328-2.313m-11.965-5.621-4.53 9.717-4.512-9.717h-6.248l7.854 14.358v9.075h5.557v-9.283l8.03-14.15zm-26.741 19.578c-.675 0-1.157-.177-1.462-.546-.321-.37-.482-.98-.482-1.83v-7.052h4.353v-4.191h-4.353v-5.011l-5.075.963v4.048h-2.682l-.61 4.191h3.292v7.758c0 1.991.466 3.453 1.413 4.417.948.963 2.425 1.445 4.401 1.445 1.494 0 2.778-.24 3.855-.707v-4.352c-.322.273-.723.482-1.205.642-.498.145-.98.225-1.445.225m-13.845-5.589a9.01 9.01 0 0 0-2.024-.964 35.532 35.532 0 0 0-2.04-.642c-.642-.177-1.156-.385-1.557-.61-.402-.241-.627-.562-.643-.964 0-.401.21-.707.643-.915.417-.21 1.012-.322 1.799-.322.963 0 1.927.161 2.874.466.964.321 1.751.739 2.378 1.27v-4.514c-1.558-.771-3.357-1.173-5.38-1.173-2.346 0-4.145.482-5.43 1.446-1.268.963-1.895 2.296-1.895 4.015.017.996.225 1.83.627 2.49a4.762 4.762 0 0 0 1.558 1.59 9.493 9.493 0 0 0 2.04.963 77.67 77.67 0 0 0 2.04.69c.642.21 1.155.45 1.557.723.402.273.61.61.626 1.028 0 .835-.803 1.253-2.44 1.253-1.045 0-2.105-.177-3.18-.498-1.093-.337-2.04-.787-2.828-1.349v4.513c1.912.851 3.967 1.285 6.152 1.285 2.36 0 4.175-.498 5.428-1.462 1.27-.98 1.895-2.344 1.895-4.127-.016-1.06-.224-1.911-.626-2.586-.418-.658-.931-1.204-1.574-1.606m-24.83-1.237c.257-2.345 1.285-3.517 3.068-3.517 1.766 0 2.746 1.172 2.955 3.517zm3.18-7.13c-2.634 0-4.658.786-6.07 2.36-1.43 1.574-2.137 3.839-2.137 6.778 0 2.939.739 5.188 2.232 6.713 1.478 1.526 3.646 2.297 6.505 2.297 1.044 0 2.12-.128 3.212-.353 1.092-.241 2.072-.562 2.94-.964v-4.48c-1.67 1.156-3.47 1.75-5.381 1.75-1.381 0-2.441-.305-3.148-.916-.707-.594-1.156-1.541-1.333-2.842h10.76c.049-.595.081-1.237.081-1.912 0-2.73-.659-4.834-1.96-6.263-1.3-1.446-3.212-2.169-5.701-2.169m-13.395-5.62-3.405 16.365-4.593-16.366h-4.979l.835 3.485-3.469 12.945-3.79-16.43h-5.782l6.89 23.433h4.818l3.839-13.25 3.726 13.25h4.882l6.73-23.433zm103.496-10.039V90.695h4.32v-4.192h-4.32v-.996c0-1.092.257-1.927.787-2.505.53-.563 1.285-.852 2.265-.852 1.156 0 2.152.337 3.003 1.012V78.65c-1.092-.45-2.297-.674-3.614-.674-2.409 0-4.256.658-5.573 1.975-1.3 1.317-1.96 3.196-1.96 5.621v.932h-2.135l-.594 4.192h2.73v13.041zM477.632 91.37c.562-.835 1.365-1.252 2.41-1.252 1.043 0 1.846.417 2.408 1.252.563.835.836 2.056.836 3.63 0 1.59-.273 2.81-.836 3.63-.562.835-1.365 1.269-2.409 1.269-1.044 0-1.847-.434-2.409-1.27-.562-.818-.835-2.039-.835-3.629 0-1.574.273-2.795.835-3.63m2.345 12.704c2.763 0 4.883-.787 6.376-2.36 1.478-1.575 2.217-3.807 2.217-6.714 0-2.955-.707-5.204-2.136-6.746-1.43-1.541-3.534-2.312-6.328-2.312-2.763 0-4.883.787-6.377 2.36-1.477 1.575-2.216 3.807-2.216 6.698 0 2.971.707 5.236 2.136 6.762 1.43 1.541 3.533 2.312 6.328 2.312M456.16 92.092c1.092-.883 2.297-1.333 3.646-1.333.931 0 1.718.16 2.328.498v-4.883a5.026 5.026 0 0 0-1.67-.305c-1.783 0-3.292.9-4.545 2.682V86.07l-4.85.98v16.687h5.09zm-14.294 6.537c-.562.835-1.365 1.269-2.41 1.269-1.043 0-1.846-.434-2.409-1.27-.562-.818-.835-2.039-.835-3.629 0-1.574.273-2.795.835-3.63.563-.835 1.366-1.252 2.41-1.252s1.847.417 2.409 1.252c.562.835.835 2.056.835 3.63 0 1.59-.273 2.81-.835 3.63M439.52 85.94c-2.763 0-4.883.787-6.376 2.36-1.478 1.575-2.217 3.807-2.217 6.698 0 2.971.707 5.236 2.136 6.762 1.43 1.541 3.534 2.312 6.328 2.312 2.763 0 4.883-.787 6.376-2.36 1.478-1.575 2.217-3.807 2.217-6.714 0-2.955-.707-5.204-2.136-6.746-1.43-1.541-3.534-2.312-6.328-2.312m-15.724 18.534 6.617-18.197h-5.444l-3.052 11.403-3.469-11.403h-5.621l6.762 16.527-.241.594c-.563 1.461-1.14 2.457-1.767 3.02-.594.545-1.381.834-2.313.834-.514 0-1.172-.112-1.975-.337v4.224c.85.193 1.75.29 2.714.29 1.847 0 3.389-.563 4.625-1.687 1.237-1.124 2.297-2.875 3.164-5.268m-17.2-4.915c-.37.29-.804.514-1.286.691-.481.16-.947.24-1.38.24-.66 0-1.141-.16-1.478-.465-.338-.305-.498-.755-.498-1.333 0-1.638 1.542-2.457 4.641-2.473zm4.882 4.176V92.8c0-2.185-.643-3.87-1.911-5.075-1.285-1.189-3.1-1.783-5.445-1.783-1.076 0-2.136.128-3.196.401s-2.008.627-2.859 1.109v4.754c.77-.659 1.654-1.157 2.618-1.526.947-.37 1.863-.562 2.73-.562 1.028 0 1.815.24 2.361.739.546.497.82 1.188.82 2.071v.514c-6.393.017-9.605 1.96-9.605 5.814 0 1.478.45 2.65 1.365 3.518.9.867 2.12 1.3 3.694 1.3.948 0 1.847-.176 2.65-.545.82-.37 1.526-.916 2.136-1.623v1.831zM374.81 80.32h-4.112v23.417h5.043v-14.02l6.168 9.475 6.456-9.942v14.487h5.043V80.32h-4.24l-7.227 11.002zm76.819-26.74V70.28h5.091V58.075c.353-.337.82-.61 1.397-.803a4.674 4.674 0 0 1 1.639-.305c1.654 0 2.49.948 2.49 2.843v10.472h5.074V59.039c0-2.104-.482-3.71-1.477-4.85-.996-1.14-2.393-1.703-4.208-1.703-1.06 0-2.024.209-2.86.643-.834.433-1.605 1.108-2.296 1.991v-2.505zm-4.577-7.437c-.53-.482-1.27-.723-2.169-.723-.915 0-1.638.241-2.184.723-.53.482-.803 1.124-.803 1.943 0 .836.273 1.494.803 1.976.546.466 1.269.707 2.184.707.9 0 1.639-.241 2.169-.707.53-.482.803-1.14.803-1.976 0-.819-.273-1.461-.803-1.943m-4.722 24.14h5.09V52.614l-5.09.995zM429.048 57.24a5.273 5.273 0 0 1 1.67-.273c2.169 0 3.245 1.494 3.245 4.481 0 3.116-1.172 4.69-3.55 4.69-.513 0-.995-.08-1.477-.225-.482-.145-.883-.337-1.189-.578v-7.34c.338-.305.771-.562 1.301-.755m-6.392-11.628v24.67h4.85v-1.607c.659.659 1.334 1.157 2.056 1.478.74.305 1.542.466 2.474.466 2.2 0 3.95-.851 5.268-2.538 1.3-1.686 1.959-3.95 1.959-6.842 0-2.73-.61-4.882-1.815-6.44-1.204-1.542-2.875-2.313-4.979-2.313-1.879 0-3.453.707-4.722 2.136v-9.974zm-8.095 20.478c-.385.289-.803.53-1.284.69a4.03 4.03 0 0 1-1.398.257c-.642 0-1.14-.16-1.461-.466-.337-.32-.514-.77-.514-1.349 0-1.622 1.558-2.457 4.657-2.473zm-5.669-13.218c-1.06.273-2.008.642-2.859 1.108v4.754a9.169 9.169 0 0 1 2.602-1.526c.964-.353 1.88-.546 2.746-.546 1.028 0 1.815.24 2.361.739.546.482.82 1.172.82 2.071v.498c-6.409.033-9.605 1.96-9.605 5.83 0 1.462.45 2.634 1.35 3.502.915.883 2.135 1.317 3.71 1.317.947 0 1.846-.193 2.65-.562.818-.354 1.525-.9 2.135-1.623v1.847h4.642V59.344c0-2.2-.643-3.887-1.927-5.075-1.285-1.189-3.084-1.783-5.429-1.783-1.076 0-2.136.128-3.196.385m-12.126 2.41v-2.667l-4.85.964v16.703h5.075V58.637c1.092-.9 2.313-1.349 3.646-1.349.947 0 1.718.177 2.345.514v-4.883a4.714 4.714 0 0 0-1.67-.305c-1.784 0-3.31.884-4.546 2.666m-14.037 10.087c-.514.433-1.301.658-2.361.658h-4.353v-5.59h4.176c1.14 0 1.976.226 2.506.675.514.45.787 1.157.787 2.137 0 .963-.257 1.67-.755 2.12m-6.714-14.262h3.582c.996 0 1.735.208 2.2.626.482.402.707 1.06.707 1.96 0 1.782-1.028 2.665-3.068 2.665h-3.42zm10.954 4.898c.546-.9.819-1.96.819-3.164 0-1.847-.61-3.308-1.847-4.368-1.237-1.077-2.94-1.623-5.107-1.623h-10.135v23.433h10.6c2.345 0 4.176-.578 5.493-1.718 1.317-1.157 1.976-2.747 1.976-4.77 0-1.446-.353-2.683-1.076-3.662-.707-.996-1.751-1.67-3.116-2.024 1.06-.498 1.847-1.188 2.393-2.104m54.43-19.514c-.562 1.446-1.14 2.441-1.767 3.004-.61.562-1.38.835-2.312.835-.514 0-1.173-.113-1.976-.337v4.224c.835.192 1.75.305 2.714.305 1.847 0 3.39-.579 4.626-1.703 1.237-1.124 2.297-2.875 3.164-5.268l6.617-18.197h-5.445l-3.051 11.404-3.47-11.404h-5.62l6.761 16.527zm-13.62.659c1.912 0 3.662-.37 5.252-1.125v-4.802c-.69.562-1.429.996-2.2 1.301-.787.29-1.558.45-2.313.45-1.317 0-2.296-.401-2.955-1.189-.642-.787-.964-2.007-.964-3.63 0-1.67.322-2.922.996-3.725.643-.82 1.655-1.237 3.02-1.237 1.558 0 2.987.594 4.24 1.75v-4.786c-1.462-.755-3.052-1.14-4.77-1.14-2.795 0-4.947.803-6.473 2.393-1.542 1.59-2.297 3.855-2.297 6.778 0 2.939.707 5.171 2.137 6.681 1.429 1.526 3.533 2.28 6.328 2.28m-15.9-4.512c-.37.289-.804.514-1.286.69-.481.161-.947.241-1.38.241-.643 0-1.141-.144-1.478-.466-.338-.305-.498-.754-.498-1.333 0-1.622 1.542-2.457 4.641-2.473zm-9.605-.305c0 1.477.466 2.65 1.365 3.517.9.867 2.136 1.3 3.694 1.3.964 0 1.847-.176 2.666-.545a6.238 6.238 0 0 0 2.12-1.622v1.847h4.658V25.873c0-2.184-.643-3.87-1.927-5.06-1.285-1.204-3.1-1.798-5.445-1.798-1.076 0-2.136.145-3.196.402-1.06.273-2.008.642-2.859 1.108v4.754a9.235 9.235 0 0 1 2.602-1.526c.963-.369 1.879-.562 2.746-.562 1.028 0 1.815.257 2.361.739.546.498.82 1.188.82 2.088v.497c-6.393.017-9.605 1.96-9.605 5.814m-7.966-7.147c1.108-.899 2.312-1.349 3.662-1.349.931 0 1.718.161 2.328.498V19.45a5.005 5.005 0 0 0-1.67-.29c-1.783 0-3.292.884-4.545 2.667V19.16l-4.85.963v16.704h5.075zM376.32 36.826h5.557V18.051h7.05v-4.657h-19.674v4.657h7.067zm-62.541 94.326-3.486-11.42h-5.62l6.777 16.527-.241.61c-.562 1.446-1.14 2.458-1.75 3.004-.627.562-1.398.835-2.346.835-.498 0-1.156-.113-1.96-.321v4.208c.852.209 1.752.305 2.7.305 1.862 0 3.404-.562 4.64-1.686 1.237-1.14 2.297-2.891 3.165-5.268l6.617-18.213h-5.445zm-13.347 2.2c-.674 0-1.156-.177-1.477-.546-.306-.37-.466-.98-.466-1.83v-7.052h4.352v-4.191h-4.352v-5.011l-5.092.963v4.048h-2.666l-.61 4.191h3.276v7.758c0 1.991.482 3.453 1.43 4.417.947.963 2.409 1.445 4.4 1.445 1.494 0 2.78-.24 3.855-.707v-4.352c-.32.273-.723.482-1.204.642-.498.145-.98.225-1.446.225m-15.017-21.007c-.931 0-1.654.24-2.184.722-.53.466-.803 1.125-.803 1.944 0 .835.273 1.477.803 1.96.53.481 1.253.722 2.184.722.9 0 1.638-.241 2.168-.723.547-.482.803-1.124.803-1.96 0-.818-.256-1.477-.803-1.943-.53-.481-1.268-.722-2.168-.722m-2.553 24.862h5.09V119.54l-5.09.996zm-9.203-15.001v-2.666l-4.85.963v16.704h5.09v-11.644c1.093-.9 2.313-1.35 3.646-1.35.932 0 1.719.177 2.345.514v-4.898a5.148 5.148 0 0 0-1.67-.29c-1.799 0-3.309.884-4.561 2.667m-14.054 9.893c-.546.836-1.349 1.253-2.409 1.253-1.044 0-1.847-.417-2.409-1.253-.546-.835-.835-2.04-.835-3.63 0-1.59.29-2.794.835-3.63.562-.834 1.365-1.252 2.41-1.252 1.06 0 1.862.418 2.408 1.253.563.835.836 2.04.836 3.63 0 1.59-.273 2.794-.836 3.63m-2.344-12.705c-2.763 0-4.883.787-6.36 2.361-1.494 1.574-2.233 3.823-2.233 6.714 0 2.97.707 5.22 2.152 6.761 1.414 1.526 3.517 2.313 6.312 2.313 2.763 0 4.899-.787 6.376-2.36 1.494-1.575 2.233-3.807 2.233-6.714 0-2.972-.723-5.22-2.152-6.762-1.43-1.542-3.534-2.313-6.328-2.313m-16.8 0c-1.012 0-1.927.193-2.73.579-.803.369-1.526.963-2.169 1.766v-10.166l-5.09.963v24.67h5.09v-12.223c.354-.337.82-.594 1.382-.803a5.127 5.127 0 0 1 1.654-.289c1.654 0 2.473.932 2.473 2.827v10.488h5.092v-11.243c0-2.104-.498-3.726-1.494-4.85-.996-1.14-2.393-1.719-4.208-1.719m-15.788 13.957c-.658 0-1.156-.177-1.461-.546-.322-.369-.482-.98-.482-1.83v-7.051h4.352v-4.192h-4.352v-5.011l-5.075.963v4.048h-2.683l-.594 4.192h3.277v7.757c0 1.991.465 3.453 1.413 4.417.947.963 2.425 1.445 4.4 1.445 1.494 0 2.78-.24 3.855-.707v-4.352c-.305.273-.706.482-1.204.642a5.115 5.115 0 0 1-1.446.225m-17.586-1.413c-.37.353-.82.61-1.398.82a5.127 5.127 0 0 1-1.654.288c-1.654 0-2.473-.947-2.473-2.843V119.54l-5.092.996v10.44c0 2.103.498 3.71 1.494 4.85.996 1.14 2.393 1.718 4.192 1.718 1.076 0 2.024-.225 2.875-.658.819-.434 1.59-1.109 2.28-1.992v2.313h4.85V119.54l-5.074.996zm-26.244-2.907 2.81-7.966 2.78 7.966zm-.53-15.258.803 2.313-8.801 21.12H178l1.446-4.112h8.432l1.43 4.112h5.797l-9.572-23.433zM317.94 98.55c-.337.32-.77.562-1.317.754a4.869 4.869 0 0 1-1.67.29c-2.152 0-3.244-1.494-3.244-4.482 0-3.131 1.188-4.69 3.55-4.69.513 0 1.011.08 1.493.226.466.144.867.337 1.188.578zm0-10.906c-.61-.578-1.252-1.012-1.943-1.285-.69-.273-1.478-.417-2.345-.417-2.2 0-3.967.835-5.268 2.521-1.317 1.687-1.96 3.967-1.96 6.842 0 2.747.595 4.899 1.8 6.44 1.204 1.559 2.875 2.33 4.995 2.33 1.027 0 1.943-.193 2.746-.579.803-.401 1.542-1.012 2.2-1.83v2.071h4.85V78.12l-5.075.964zm-24.733 5.429c.273-2.345 1.3-3.518 3.083-3.518 1.767 0 2.73 1.173 2.94 3.518zm3.18-7.131c-2.634 0-4.658.787-6.071 2.36-1.414 1.575-2.12 3.823-2.12 6.778 0 2.94.739 5.172 2.216 6.698 1.494 1.542 3.646 2.296 6.505 2.296 1.06 0 2.12-.112 3.212-.353a13.867 13.867 0 0 0 2.955-.947v-4.481c-1.686 1.156-3.469 1.734-5.396 1.734-1.381 0-2.425-.305-3.148-.9-.707-.61-1.157-1.557-1.333-2.842h10.777c.048-.61.064-1.253.064-1.911 0-2.747-.643-4.834-1.96-6.28-1.3-1.43-3.212-2.152-5.701-2.152m-10.874 17.795V92.494c0-2.088-.497-3.71-1.493-4.85-.996-1.141-2.393-1.703-4.192-1.703-1.076 0-2.024.225-2.859.642-.835.45-1.606 1.109-2.297 1.992v-2.506l-4.85.98v16.687h5.075V91.53c.37-.337.835-.61 1.398-.803a4.76 4.76 0 0 1 1.654-.305c1.654 0 2.473.948 2.473 2.843v10.471zM263.06 78.874c-.915 0-1.638.241-2.168.723-.546.482-.803 1.14-.803 1.96 0 .818.257 1.477.803 1.959.53.482 1.253.722 2.168.722.916 0 1.639-.24 2.169-.722.546-.482.819-1.14.819-1.96 0-.819-.273-1.477-.82-1.96-.53-.481-1.252-.722-2.168-.722m2.538 7.195-5.075 1.012v16.655h5.075zM247.32 99.368c-.482-.145-.884-.337-1.189-.578v-7.324c.337-.321.771-.562 1.301-.755a4.869 4.869 0 0 1 1.67-.29c2.169 0 3.245 1.495 3.245 4.482 0 3.132-1.173 4.69-3.55 4.69-.498 0-.995-.064-1.477-.225m8.368 2.184c1.3-1.687 1.959-3.967 1.959-6.842 0-2.747-.61-4.899-1.815-6.44-1.204-1.559-2.875-2.33-4.995-2.33-1.863 0-3.437.707-4.706 2.137v-9.958l-5.09.964v24.653h4.85v-1.606c.658.674 1.333 1.172 2.055 1.477.74.306 1.542.466 2.458.466 2.216 0 3.967-.835 5.284-2.521m-23.931-10.44c.37.45.546 1.173.546 2.152v10.472h5.091V92.493c0-2.136-.45-3.758-1.365-4.882-.915-1.108-2.264-1.67-4.015-1.67-2.152 0-3.935.85-5.364 2.537-.836-1.686-2.33-2.537-4.481-2.537-1.992 0-3.614.803-4.883 2.409v-2.281l-4.85.98v16.687h5.075V91.289c.787-.578 1.654-.867 2.586-.867.787 0 1.349.224 1.718.69.37.45.562 1.173.562 2.152v10.472h5.076V92.493c0-.353-.017-.738-.064-1.172.786-.594 1.67-.9 2.65-.9.77 0 1.349.225 1.718.691m-33.101.257c.546-.835 1.349-1.253 2.393-1.253 1.06 0 1.863.418 2.425 1.253.546.835.835 2.056.835 3.63 0 1.59-.289 2.81-.835 3.63-.562.835-1.365 1.268-2.425 1.268-1.044 0-1.847-.433-2.393-1.268-.562-.82-.852-2.04-.852-3.63 0-1.574.29-2.795.852-3.63m2.328 12.704c2.779 0 4.9-.787 6.377-2.36 1.493-1.575 2.232-3.807 2.232-6.714 0-2.955-.723-5.204-2.136-6.746-1.43-1.542-3.55-2.312-6.328-2.312-2.762 0-4.899.787-6.376 2.36-1.494 1.574-2.233 3.807-2.233 6.698 0 2.971.723 5.236 2.153 6.761 1.413 1.542 3.533 2.313 6.311 2.313m-16.655-19.61c2.072 0 3.967.755 5.686 2.28v-5.348c-1.783-1.06-3.807-1.574-6.055-1.574-3.566 0-6.312 1.076-8.255 3.245-1.928 2.152-2.891 5.22-2.891 9.203 0 3.918.9 6.906 2.714 8.93 1.799 2.023 4.465 3.035 7.998 3.035 1.157 0 2.345-.128 3.582-.401 1.22-.29 2.297-.675 3.244-1.157v-5.364a10.42 10.42 0 0 1-2.89 1.686c-1.06.385-2.12.594-3.197.594-1.943 0-3.389-.61-4.32-1.83-.932-1.205-1.414-3.084-1.414-5.638 0-2.586.482-4.513 1.43-5.766.947-1.268 2.409-1.895 4.368-1.895m125.5-28.38c1.767 0 2.746 1.19 2.955 3.518h-6.023c.257-2.329 1.285-3.517 3.068-3.517m.642 14.535c1.044 0 2.12-.129 3.212-.353 1.093-.241 2.072-.547 2.94-.964V64.82c-1.67 1.172-3.47 1.75-5.38 1.75-1.382 0-2.442-.305-3.149-.915-.706-.594-1.156-1.542-1.333-2.843h10.777a34.24 34.24 0 0 0 .064-1.911c0-2.73-.658-4.834-1.96-6.264-1.3-1.445-3.211-2.152-5.7-2.152-2.635 0-4.659.771-6.072 2.345-1.43 1.574-2.136 3.839-2.136 6.778 0 2.955.739 5.187 2.232 6.713 1.478 1.526 3.646 2.297 6.505 2.297m-16.125-11.982c1.092-.899 2.313-1.349 3.646-1.349.931 0 1.718.177 2.345.514V52.92a4.779 4.779 0 0 0-1.67-.305c-1.783 0-3.31.883-4.562 2.666v-2.666l-4.85.963v16.704h5.091zm-11.837-7.87c.9 0 1.622-.24 2.168-.706.53-.482.803-1.14.803-1.976 0-.819-.273-1.461-.803-1.943-.546-.482-1.268-.723-2.168-.723-.931 0-1.654.241-2.184.723-.53.482-.803 1.124-.803 1.943 0 .836.273 1.494.803 1.976.53.466 1.253.707 2.184.707m-2.554 19.514h5.092V52.615l-5.092.995zm-9.17-10.472v10.472h5.091V59.039c0-2.104-.498-3.71-1.494-4.85-.98-1.14-2.393-1.703-4.191-1.703-1.028 0-1.944.177-2.747.562-.803.386-1.526.964-2.184 1.767V44.648l-5.075.964v24.67h5.075V58.075c.37-.337.835-.61 1.397-.819a5.128 5.128 0 0 1 1.654-.289c1.655 0 2.474.948 2.474 2.843m-27.16-1.88c.017 1.013.226 1.848.627 2.49a4.76 4.76 0 0 0 1.558 1.59 10.36 10.36 0 0 0 2.04.98c.723.24 1.413.466 2.04.675.642.224 1.156.465 1.558.722.401.273.61.61.626 1.044 0 .82-.803 1.237-2.441 1.237-1.044 0-2.104-.177-3.18-.498-1.093-.337-2.04-.787-2.827-1.349v4.513c1.911.851 3.967 1.285 6.151 1.285 2.361 0 4.176-.498 5.429-1.462 1.269-.963 1.895-2.345 1.895-4.127-.016-1.044-.225-1.912-.626-2.586-.418-.659-.932-1.205-1.558-1.606a9.474 9.474 0 0 0-2.04-.964c-.739-.24-1.413-.45-2.056-.642-.626-.177-1.14-.385-1.542-.61-.401-.242-.626-.547-.642-.964 0-.385.209-.707.642-.916.418-.209 1.012-.32 1.8-.32.963 0 1.926.16 2.874.465.964.321 1.75.739 2.377 1.285v-4.513c-1.558-.787-3.357-1.173-5.38-1.173-2.345 0-4.16.466-5.429 1.43-1.269.963-1.895 2.296-1.895 4.015M229.83 44.649l-4.98.931v24.702h4.98V65.03l2.537-2.682 3.983 7.934h5.798l-6.585-11.243 5.91-6.232h-5.781l-5.862 6.762zM215.648 55.28v-2.666l-4.85.963v16.704h5.075V58.638c1.092-.9 2.313-1.35 3.662-1.35.931 0 1.702.177 2.328.514V52.92a4.651 4.651 0 0 0-1.67-.305c-1.783 0-3.292.883-4.545 2.666m-18.711 9.893c-.562-.835-.835-2.04-.835-3.63 0-1.573.273-2.794.835-3.63.562-.834 1.365-1.252 2.41-1.252 1.06 0 1.846.418 2.408 1.253.562.835.835 2.056.835 3.63 0 1.59-.273 2.794-.835 3.63-.562.835-1.349 1.252-2.409 1.252-1.044 0-1.847-.417-2.409-1.253m8.721 3.084c1.478-1.574 2.216-3.806 2.216-6.713 0-2.972-.706-5.22-2.136-6.762-1.429-1.526-3.533-2.297-6.328-2.297-2.762 0-4.882.771-6.36 2.345-1.493 1.574-2.232 3.823-2.232 6.714 0 2.97.723 5.22 2.136 6.761 1.43 1.542 3.55 2.313 6.328 2.313 2.762 0 4.898-.787 6.376-2.36m-25.65 2.023h5.558v-9.267l8.03-14.166h-6.151l-4.53 9.717-4.512-9.717h-6.248l7.854 14.358zm59.458-38.98c0 1.976.482 3.453 1.43 4.417.947.963 2.409 1.43 4.4 1.43 1.494 0 2.779-.226 3.839-.707v-4.337a3.278 3.278 0 0 1-1.205.626c-.482.161-.963.241-1.43.241-.674 0-1.156-.192-1.477-.562-.305-.353-.466-.963-.466-1.815V23.53h4.353v-4.176h-4.353v-5.027l-5.09.98v4.047H236.8l-.61 4.176h3.276zm-6.504 4.4c1.252-.979 1.895-2.36 1.895-4.143-.033-1.044-.241-1.895-.643-2.57a4.662 4.662 0 0 0-1.558-1.606 9.13 9.13 0 0 0-2.04-.963 29.027 29.027 0 0 0-2.04-.643c-.625-.177-1.155-.385-1.557-.626-.401-.225-.61-.546-.626-.948 0-.402.208-.707.626-.915.434-.225 1.028-.321 1.815-.321.947 0 1.911.16 2.875.465.963.305 1.75.74 2.377 1.27v-4.514c-1.558-.787-3.357-1.172-5.38-1.172-2.346 0-4.16.481-5.43 1.445-1.268.948-1.91 2.297-1.91 4.015.016.996.24 1.831.642 2.49a4.76 4.76 0 0 0 1.558 1.59c.626.401 1.3.722 2.04.963.722.241 1.397.482 2.04.691.626.209 1.156.45 1.557.723.402.257.61.61.627 1.028 0 .835-.803 1.252-2.442 1.252-1.044 0-2.104-.176-3.196-.514-1.076-.337-2.023-.77-2.826-1.333v4.513c1.927.852 3.967 1.27 6.15 1.27 2.378 0 4.177-.483 5.446-1.446m-22.068-13.074c1.767 0 2.746 1.173 2.939 3.518h-6.023c.273-2.345 1.301-3.518 3.084-3.518m-5.862 12.239c1.477 1.525 3.646 2.28 6.504 2.28 1.044 0 2.12-.112 3.213-.353a13.432 13.432 0 0 0 2.939-.947v-4.481c-1.67 1.156-3.47 1.734-5.397 1.734-1.381 0-2.425-.305-3.132-.9-.722-.61-1.156-1.541-1.349-2.842h10.777c.048-.61.064-1.237.064-1.911 0-2.747-.642-4.835-1.943-6.28-1.317-1.43-3.212-2.152-5.718-2.152-2.634 0-4.658.787-6.07 2.36-1.414 1.575-2.12 3.823-2.12 6.778 0 2.94.738 5.172 2.232 6.714m-20.847 1.96 3.854-13.267 3.71 13.266h4.899l6.713-23.433h-5.685L194.27 29.76l-4.594-16.366h-4.979l.836 3.486-3.486 12.945-3.774-16.43h-5.798l6.89 23.432zm-40.169 2.264c-3.533-8.16-12.126-13.684-21.36-13.684a20.94 20.94 0 0 0-6.955 1.172c-.112 1.928-.53 8.834-.594 10.07 0 0 3.276-1.108 5.942-1.108 3.775 0 7.404 1.606 9.942 4.401 1.446 1.51 2.457 3.517 3.26 6.473 0 0 4.899 15.579 6.216 19.096 1.06 2.827 1.413 5.06 1.14 7.195a13.345 13.345 0 0 1-8.143 10.841l-18.71 7.324a26.174 26.174 0 0 1-9.557 1.83c-.722 0-1.445-.032-2.168-.095-9.267-.707-17.827-6.906-21.698-15.419 3.919-2.232 8.496-3.437 13.138-3.437 4.85 0 9.524 1.285 13.507 3.742 3.244 1.944 6.055 4.69 8.19 7.918l7.003-2.746c-3.003-3.63-6.295-6.376-6.295-6.376-5.59-4.481-12.705-7.003-20.109-7.147 5.734-4.337 10.135-10.504 12.078-17.651l.033-.08c1.044-3.309 1.269-7.725 1.478-11.612.225-4.208.722-12.351.915-15.756.643-11.789-8.833-22.662-20.702-23.786C88.222.032 79.437.08 76.69 0h-.048c-1.285.017-10.488-.064-13.94.257C51.104 1.365 41.757 11.869 42.03 23.369c1.847.722 8.303 3.308 9.395 3.758l.177-2.988a13.434 13.434 0 0 1 7.886-11.226c1.606-.771 3.501-1.14 5.927-1.14.45 0 11.274.112 11.274.112.659 0 10.793-.112 11.227-.112 2.409 0 4.32.385 6.007 1.172a13.357 13.357 0 0 1 7.79 11.098l1.172 20.06c.257 4-.418 8.047-1.96 11.676-3.55 8.609-12.11 14.84-21.393 15.868-1.863-9.122 1.413-19.16 8.528-25.215 2.86-2.49 6.344-4.32 10.087-5.348l-.45-7.517c-2.875 1.14-5.814 2.425-7.95 3.967l-.096.064c-6.216 4.08-10.713 10.167-13.058 16.977-2.345-6.714-6.762-12.705-12.88-16.784l-.065-.048c-3.55-2.554-25.231-10.89-25.231-10.89a21.025 21.025 0 0 0-7.613-1.445c-9.22-.064-17.876 5.413-21.474 13.604l-4.61 13.09L.547 65.463C-2.088 76.899 5.076 89.17 16.238 92.43c3.164-3.87 5.524-6.73 6.376-7.773L19.723 83.5A13.384 13.384 0 0 1 11.548 72.5c-.257-2.072.112-4.273 1.204-7.131v-.033l6.328-19.048c.82-2.891 1.863-4.899 3.357-6.457 5.188-5.445 11.869-4.176 12.977-3.903l19.418 5.204c3.87 1.012 7.5 2.923 10.471 5.541 6.955 6.007 10.183 15.9 8.384 24.975-9.25-1.076-17.763-7.308-21.313-15.9-1.445-3.438-2.12-7.26-1.975-11.083l-7.26-1.959c.193 3.068.498 6.216 1.301 8.689l.033.112c1.96 7.163 6.36 13.315 12.126 17.667-7.436.128-14.583 2.65-20.188 7.147l-.08.064c-3.79 2.81-12.72 14.262-12.72 14.262a459.397 459.397 0 0 0-5.3 6.473c-7.437 9.154-6.168 23.529 2.778 31.399 2.056 1.815 18.132 13.764 22.55 16.382 3.308 1.96 7.227 3.003 11.29 3.003 7.677 0 14.872-3.646 18.968-9.54-1.076-1.686-4.754-7.484-5.413-8.512l-1.847 2.248a13.417 13.417 0 0 1-10.246 4.738c-.932 0-4.77-.112-9.155-3.597l-.033-.017c-1.494-1.14-14.31-10.52-16.222-11.788-2.521-1.655-4.111-3.26-5.155-5.156a13.312 13.312 0 0 1 .225-13.555l.016-.033 10.81-16.88c2.151-3.389 5.074-6.264 8.463-8.304 3.967-2.44 8.625-3.742 13.475-3.742 4.626 0 9.171 1.205 13.106 3.437-7.18 16.029-24.011 15.611-24.075 15.611-3.02-.016-6.103-.61-8.962-1.67L34.85 97.44c5.412 1.43 10.199 1.494 10.263 1.494 6.665 0 13.395-2.152 19.032-6.087-2.056 6.858-1.96 14.374.658 21.28l.017.08c1.718 5.108 11.869 20.012 14.166 23.562 4.03 6.231 11.45 10.102 19.369 10.102 4.08 0 7.998-1.044 11.355-3.036 2.329-1.38 12.736-8.961 14.519-10.262 0 0 4.786-3.277 8.03-6.12 8.721-7.693 10.103-21.666 3.132-30.82-1.847.481-8.544 2.232-9.765 2.537l1.558 2.458a13.39 13.39 0 0 1 .225 13.7c-.996 1.83-2.586 3.404-5.123 5.09l-.033.034c-1.574 1.076-14.776 10.632-16.238 11.788-2.345 1.863-4.352 2.891-6.488 3.293-1.35.257-7.95 1.317-12.817-4.385L73.96 116.601c-2.554-3.083-4.385-6.745-5.268-10.6-2.184-9.026 1.044-19.064 7.934-25.376 6.906 6.28 10.166 16.35 7.966 25.44-.851 3.678-2.586 7.212-4.995 10.231l4.77 5.814c2.634-4.128 4.128-7.95 4.128-7.95 2.618-6.955 2.698-14.487.61-21.362 6.055 4.192 13.347 6.36 20.462 6.023h.08c3.47-.033 7.741-1.172 11.5-2.184.963-.257 12.993-3.405 15.274-4 11.403-3.035 18.823-15.418 16.221-27.03-.82-3.645-7.147-23.111-8.625-26.516"/>
</svg>
